<svg width="175" height="200" viewBox="0 0 175 200" fill="none" xmlns="http://www.w3.org/2000/svg">
<g style="mix-blend-mode:overlay">
<mask id="path-1-inside-1_56_3122" fill="white">
<path d="M113 158C136.634 158 158.273 166.54 175 180.703V200H33.6182C50.898 174.647 80.0043 158 113 158Z"/>
<path d="M21 140C23.2091 140 25 141.791 25 144C25 146.209 23.2091 148 21 148C18.7909 148 17 146.209 17 144C17 141.791 18.7909 140 21 140Z"/>
<path d="M37.6768 140C39.8859 140 41.6768 141.791 41.6768 144C41.6768 146.209 39.8859 148 37.6768 148C35.4678 148 33.6768 146.209 33.6768 144C33.6768 141.791 35.4678 140 37.6768 140Z"/>
<path d="M54.3545 140C56.5635 140 58.3545 141.791 58.3545 144C58.3545 146.209 56.5635 148 54.3545 148C52.1454 148 50.3545 146.209 50.3545 144C50.3545 141.791 52.1454 140 54.3545 140Z"/>
<path d="M71.0312 140C73.2404 140 75.0312 141.791 75.0312 144C75.0312 146.209 73.2404 148 71.0312 148C68.8221 148 67.0312 146.209 67.0312 144C67.0312 141.791 68.8221 140 71.0312 140Z"/>
<path d="M87.708 140C89.9171 140 91.708 141.791 91.708 144C91.708 146.209 89.9171 148 87.708 148C85.499 148 83.708 146.209 83.708 144C83.708 141.791 85.499 140 87.708 140Z"/>
<path d="M104.386 140C106.595 140 108.386 141.791 108.386 144C108.386 146.209 106.595 148 104.386 148C102.177 148 100.386 146.209 100.386 144C100.386 141.791 102.177 140 104.386 140Z"/>
<path d="M121.062 140C123.272 140 125.062 141.791 125.062 144C125.062 146.209 123.272 148 121.062 148C118.853 148 117.062 146.209 117.062 144C117.062 141.791 118.853 140 121.062 140Z"/>
<path d="M137.739 140C139.948 140 141.739 141.791 141.739 144C141.739 146.209 139.948 148 137.739 148C135.53 148 133.739 146.209 133.739 144C133.739 141.791 135.53 140 137.739 140Z"/>
<path d="M154.417 140C156.626 140 158.417 141.791 158.417 144C158.417 146.209 156.626 148 154.417 148C152.208 148 150.417 146.209 150.417 144C150.417 141.791 152.208 140 154.417 140Z"/>
<path d="M28.4375 120C30.6466 120 32.4375 121.791 32.4375 124C32.4375 126.209 30.6466 128 28.4375 128C26.2284 128 24.4375 126.209 24.4375 124C24.4375 121.791 26.2284 120 28.4375 120Z"/>
<path d="M45.1143 120C47.3234 120 49.1143 121.791 49.1143 124C49.1143 126.209 47.3234 128 45.1143 128C42.9053 128 41.1143 126.209 41.1143 124C41.1143 121.791 42.9053 120 45.1143 120Z"/>
<path d="M61.792 120C64.001 120 65.792 121.791 65.792 124C65.792 126.209 64.001 128 61.792 128C59.5829 128 57.792 126.209 57.792 124C57.792 121.791 59.5829 120 61.792 120Z"/>
<path d="M78.4688 120C80.6779 120 82.4688 121.791 82.4688 124C82.4688 126.209 80.6779 128 78.4688 128C76.2596 128 74.4688 126.209 74.4688 124C74.4688 121.791 76.2596 120 78.4688 120Z"/>
<path d="M95.1455 120C97.3546 120 99.1455 121.791 99.1455 124C99.1455 126.209 97.3546 128 95.1455 128C92.9365 128 91.1455 126.209 91.1455 124C91.1455 121.791 92.9365 120 95.1455 120Z"/>
<path d="M111.823 120C114.032 120 115.823 121.791 115.823 124C115.823 126.209 114.032 128 111.823 128C109.614 128 107.823 126.209 107.823 124C107.823 121.791 109.614 120 111.823 120Z"/>
<path d="M128.5 120C130.709 120 132.5 121.791 132.5 124C132.5 126.209 130.709 128 128.5 128C126.291 128 124.5 126.209 124.5 124C124.5 121.791 126.291 120 128.5 120Z"/>
<path d="M145.177 120C147.386 120 149.177 121.791 149.177 124C149.177 126.209 147.386 128 145.177 128C142.968 128 141.177 126.209 141.177 124C141.177 121.791 142.968 120 145.177 120Z"/>
<path d="M14.9521 0C29.6106 11.728 39 29.7672 39 50C39 76.4756 22.9235 99.196 0 108.933V0H14.9521Z"/>
<path d="M37.1143 100C39.3234 100 41.1143 101.791 41.1143 104C41.1143 106.209 39.3234 108 37.1143 108C34.9053 108 33.1143 106.209 33.1143 104C33.1143 101.791 34.9053 100 37.1143 100Z"/>
<path d="M53.792 100C56.001 100 57.792 101.791 57.792 104C57.792 106.209 56.001 108 53.792 108C51.5829 108 49.792 106.209 49.792 104C49.792 101.791 51.5829 100 53.792 100Z"/>
<path d="M70.4688 100C72.6779 100 74.4688 101.791 74.4688 104C74.4688 106.209 72.6779 108 70.4688 108C68.2596 108 66.4688 106.209 66.4688 104C66.4688 101.791 68.2596 100 70.4688 100Z"/>
<path d="M87.1455 100C89.3546 100 91.1455 101.791 91.1455 104C91.1455 106.209 89.3546 108 87.1455 108C84.9365 108 83.1455 106.209 83.1455 104C83.1455 101.791 84.9365 100 87.1455 100Z"/>
<path d="M103.823 100C106.032 100 107.823 101.791 107.823 104C107.823 106.209 106.032 108 103.823 108C101.614 108 99.8232 106.209 99.8232 104C99.8232 101.791 101.614 100 103.823 100Z"/>
<path d="M120.5 100C122.709 100 124.5 101.791 124.5 104C124.5 106.209 122.709 108 120.5 108C118.291 108 116.5 106.209 116.5 104C116.5 101.791 118.291 100 120.5 100Z"/>
<path d="M137.177 100C139.386 100 141.177 101.791 141.177 104C141.177 106.209 139.386 108 137.177 108C134.968 108 133.177 106.209 133.177 104C133.177 101.791 134.968 100 137.177 100Z"/>
<path d="M44.5518 80C46.7609 80 48.5518 81.7909 48.5518 84C48.5518 86.2091 46.7609 88 44.5518 88C42.3428 87.9998 40.5518 86.209 40.5518 84C40.5518 81.791 42.3428 80.0002 44.5518 80Z"/>
<path d="M61.2295 80C63.4385 80.0002 65.2295 81.791 65.2295 84C65.2295 86.209 63.4385 87.9998 61.2295 88C59.0204 88 57.2295 86.2091 57.2295 84C57.2295 81.7909 59.0204 80 61.2295 80Z"/>
<path d="M77.9062 80C80.1154 80 81.9062 81.7909 81.9062 84C81.9062 86.2091 80.1154 88 77.9062 88C75.6971 88 73.9062 86.2091 73.9062 84C73.9062 81.7909 75.6971 80 77.9062 80Z"/>
<path d="M94.583 80C96.7921 80 98.583 81.7909 98.583 84C98.583 86.2091 96.7921 88 94.583 88C92.374 87.9998 90.583 86.209 90.583 84C90.583 81.791 92.374 80.0002 94.583 80Z"/>
<path d="M111.261 80C113.47 80.0002 115.261 81.791 115.261 84C115.261 86.209 113.47 87.9998 111.261 88C109.052 88 107.261 86.2091 107.261 84C107.261 81.7909 109.052 80 111.261 80Z"/>
<path d="M127.938 80C130.147 80 131.938 81.7909 131.938 84C131.938 86.2091 130.147 88 127.938 88C125.728 88 123.938 86.2091 123.938 84C123.938 81.7909 125.728 80 127.938 80Z"/>
<path d="M175 67.7246C170.602 69.1996 165.895 70 161 70C136.699 70 117 50.3005 117 26C117 16.2726 120.159 7.28443 125.504 0H175V67.7246Z"/>
<path d="M53.2295 60C55.4385 60.0002 57.2295 61.791 57.2295 64C57.2295 66.209 55.4385 67.9998 53.2295 68C51.0204 68 49.2295 66.2091 49.2295 64C49.2295 61.7909 51.0204 60 53.2295 60Z"/>
<path d="M69.9062 60C72.1154 60 73.9062 61.7909 73.9062 64C73.9062 66.2091 72.1154 68 69.9062 68C67.6971 68 65.9062 66.2091 65.9062 64C65.9062 61.7909 67.6971 60 69.9062 60Z"/>
<path d="M86.583 60C88.7921 60 90.583 61.7909 90.583 64C90.583 66.2091 88.7921 68 86.583 68C84.374 67.9998 82.583 66.209 82.583 64C82.583 61.791 84.374 60.0002 86.583 60Z"/>
<path d="M103.261 60C105.47 60.0002 107.261 61.791 107.261 64C107.261 66.209 105.47 67.9998 103.261 68C101.052 68 99.2607 66.2091 99.2607 64C99.2607 61.7909 101.052 60 103.261 60Z"/>
<path d="M119.938 60C122.147 60 123.938 61.7909 123.938 64C123.938 66.2091 122.147 68 119.938 68C117.728 68 115.938 66.2091 115.938 64C115.938 61.7909 117.728 60 119.938 60Z"/>
<path d="M68.5 40C70.7091 40 72.5 41.7909 72.5 44C72.5 46.2091 70.7091 48 68.5 48C66.2909 48 64.5 46.2091 64.5 44C64.5 41.7909 66.2909 40 68.5 40Z"/>
<path d="M85.1768 40C87.3859 40 89.1768 41.7909 89.1768 44C89.1768 46.2091 87.3859 48 85.1768 48C82.9678 47.9998 81.1768 46.209 81.1768 44C81.1768 41.791 82.9678 40.0002 85.1768 40Z"/>
<path d="M101.854 40C104.063 40.0002 105.854 41.791 105.854 44C105.854 46.209 104.063 47.9998 101.854 48C99.6454 48 97.8545 46.2091 97.8545 44C97.8545 41.7909 99.6454 40 101.854 40Z"/>
</mask>
<path d="M113 158C136.634 158 158.273 166.54 175 180.703V200H33.6182C50.898 174.647 80.0043 158 113 158Z" fill="url(#paint0_radial_56_3122)" fill-opacity="0.2"/>
<path d="M21 140C23.2091 140 25 141.791 25 144C25 146.209 23.2091 148 21 148C18.7909 148 17 146.209 17 144C17 141.791 18.7909 140 21 140Z" fill="url(#paint1_radial_56_3122)" fill-opacity="0.2"/>
<path d="M37.6768 140C39.8859 140 41.6768 141.791 41.6768 144C41.6768 146.209 39.8859 148 37.6768 148C35.4678 148 33.6768 146.209 33.6768 144C33.6768 141.791 35.4678 140 37.6768 140Z" fill="url(#paint2_radial_56_3122)" fill-opacity="0.2"/>
<path d="M54.3545 140C56.5635 140 58.3545 141.791 58.3545 144C58.3545 146.209 56.5635 148 54.3545 148C52.1454 148 50.3545 146.209 50.3545 144C50.3545 141.791 52.1454 140 54.3545 140Z" fill="url(#paint3_radial_56_3122)" fill-opacity="0.2"/>
<path d="M71.0312 140C73.2404 140 75.0312 141.791 75.0312 144C75.0312 146.209 73.2404 148 71.0312 148C68.8221 148 67.0312 146.209 67.0312 144C67.0312 141.791 68.8221 140 71.0312 140Z" fill="url(#paint4_radial_56_3122)" fill-opacity="0.2"/>
<path d="M87.708 140C89.9171 140 91.708 141.791 91.708 144C91.708 146.209 89.9171 148 87.708 148C85.499 148 83.708 146.209 83.708 144C83.708 141.791 85.499 140 87.708 140Z" fill="url(#paint5_radial_56_3122)" fill-opacity="0.2"/>
<path d="M104.386 140C106.595 140 108.386 141.791 108.386 144C108.386 146.209 106.595 148 104.386 148C102.177 148 100.386 146.209 100.386 144C100.386 141.791 102.177 140 104.386 140Z" fill="url(#paint6_radial_56_3122)" fill-opacity="0.2"/>
<path d="M121.062 140C123.272 140 125.062 141.791 125.062 144C125.062 146.209 123.272 148 121.062 148C118.853 148 117.062 146.209 117.062 144C117.062 141.791 118.853 140 121.062 140Z" fill="url(#paint7_radial_56_3122)" fill-opacity="0.2"/>
<path d="M137.739 140C139.948 140 141.739 141.791 141.739 144C141.739 146.209 139.948 148 137.739 148C135.53 148 133.739 146.209 133.739 144C133.739 141.791 135.53 140 137.739 140Z" fill="url(#paint8_radial_56_3122)" fill-opacity="0.2"/>
<path d="M154.417 140C156.626 140 158.417 141.791 158.417 144C158.417 146.209 156.626 148 154.417 148C152.208 148 150.417 146.209 150.417 144C150.417 141.791 152.208 140 154.417 140Z" fill="url(#paint9_radial_56_3122)" fill-opacity="0.2"/>
<path d="M28.4375 120C30.6466 120 32.4375 121.791 32.4375 124C32.4375 126.209 30.6466 128 28.4375 128C26.2284 128 24.4375 126.209 24.4375 124C24.4375 121.791 26.2284 120 28.4375 120Z" fill="url(#paint10_radial_56_3122)" fill-opacity="0.2"/>
<path d="M45.1143 120C47.3234 120 49.1143 121.791 49.1143 124C49.1143 126.209 47.3234 128 45.1143 128C42.9053 128 41.1143 126.209 41.1143 124C41.1143 121.791 42.9053 120 45.1143 120Z" fill="url(#paint11_radial_56_3122)" fill-opacity="0.2"/>
<path d="M61.792 120C64.001 120 65.792 121.791 65.792 124C65.792 126.209 64.001 128 61.792 128C59.5829 128 57.792 126.209 57.792 124C57.792 121.791 59.5829 120 61.792 120Z" fill="url(#paint12_radial_56_3122)" fill-opacity="0.2"/>
<path d="M78.4688 120C80.6779 120 82.4688 121.791 82.4688 124C82.4688 126.209 80.6779 128 78.4688 128C76.2596 128 74.4688 126.209 74.4688 124C74.4688 121.791 76.2596 120 78.4688 120Z" fill="url(#paint13_radial_56_3122)" fill-opacity="0.2"/>
<path d="M95.1455 120C97.3546 120 99.1455 121.791 99.1455 124C99.1455 126.209 97.3546 128 95.1455 128C92.9365 128 91.1455 126.209 91.1455 124C91.1455 121.791 92.9365 120 95.1455 120Z" fill="url(#paint14_radial_56_3122)" fill-opacity="0.2"/>
<path d="M111.823 120C114.032 120 115.823 121.791 115.823 124C115.823 126.209 114.032 128 111.823 128C109.614 128 107.823 126.209 107.823 124C107.823 121.791 109.614 120 111.823 120Z" fill="url(#paint15_radial_56_3122)" fill-opacity="0.2"/>
<path d="M128.5 120C130.709 120 132.5 121.791 132.5 124C132.5 126.209 130.709 128 128.5 128C126.291 128 124.5 126.209 124.5 124C124.5 121.791 126.291 120 128.5 120Z" fill="url(#paint16_radial_56_3122)" fill-opacity="0.2"/>
<path d="M145.177 120C147.386 120 149.177 121.791 149.177 124C149.177 126.209 147.386 128 145.177 128C142.968 128 141.177 126.209 141.177 124C141.177 121.791 142.968 120 145.177 120Z" fill="url(#paint17_radial_56_3122)" fill-opacity="0.2"/>
<path d="M14.9521 0C29.6106 11.728 39 29.7672 39 50C39 76.4756 22.9235 99.196 0 108.933V0H14.9521Z" fill="url(#paint18_radial_56_3122)" fill-opacity="0.2"/>
<path d="M37.1143 100C39.3234 100 41.1143 101.791 41.1143 104C41.1143 106.209 39.3234 108 37.1143 108C34.9053 108 33.1143 106.209 33.1143 104C33.1143 101.791 34.9053 100 37.1143 100Z" fill="url(#paint19_radial_56_3122)" fill-opacity="0.2"/>
<path d="M53.792 100C56.001 100 57.792 101.791 57.792 104C57.792 106.209 56.001 108 53.792 108C51.5829 108 49.792 106.209 49.792 104C49.792 101.791 51.5829 100 53.792 100Z" fill="url(#paint20_radial_56_3122)" fill-opacity="0.2"/>
<path d="M70.4688 100C72.6779 100 74.4688 101.791 74.4688 104C74.4688 106.209 72.6779 108 70.4688 108C68.2596 108 66.4688 106.209 66.4688 104C66.4688 101.791 68.2596 100 70.4688 100Z" fill="url(#paint21_radial_56_3122)" fill-opacity="0.2"/>
<path d="M87.1455 100C89.3546 100 91.1455 101.791 91.1455 104C91.1455 106.209 89.3546 108 87.1455 108C84.9365 108 83.1455 106.209 83.1455 104C83.1455 101.791 84.9365 100 87.1455 100Z" fill="url(#paint22_radial_56_3122)" fill-opacity="0.2"/>
<path d="M103.823 100C106.032 100 107.823 101.791 107.823 104C107.823 106.209 106.032 108 103.823 108C101.614 108 99.8232 106.209 99.8232 104C99.8232 101.791 101.614 100 103.823 100Z" fill="url(#paint23_radial_56_3122)" fill-opacity="0.2"/>
<path d="M120.5 100C122.709 100 124.5 101.791 124.5 104C124.5 106.209 122.709 108 120.5 108C118.291 108 116.5 106.209 116.5 104C116.5 101.791 118.291 100 120.5 100Z" fill="url(#paint24_radial_56_3122)" fill-opacity="0.2"/>
<path d="M137.177 100C139.386 100 141.177 101.791 141.177 104C141.177 106.209 139.386 108 137.177 108C134.968 108 133.177 106.209 133.177 104C133.177 101.791 134.968 100 137.177 100Z" fill="url(#paint25_radial_56_3122)" fill-opacity="0.2"/>
<path d="M44.5518 80C46.7609 80 48.5518 81.7909 48.5518 84C48.5518 86.2091 46.7609 88 44.5518 88C42.3428 87.9998 40.5518 86.209 40.5518 84C40.5518 81.791 42.3428 80.0002 44.5518 80Z" fill="url(#paint26_radial_56_3122)" fill-opacity="0.2"/>
<path d="M61.2295 80C63.4385 80.0002 65.2295 81.791 65.2295 84C65.2295 86.209 63.4385 87.9998 61.2295 88C59.0204 88 57.2295 86.2091 57.2295 84C57.2295 81.7909 59.0204 80 61.2295 80Z" fill="url(#paint27_radial_56_3122)" fill-opacity="0.2"/>
<path d="M77.9062 80C80.1154 80 81.9062 81.7909 81.9062 84C81.9062 86.2091 80.1154 88 77.9062 88C75.6971 88 73.9062 86.2091 73.9062 84C73.9062 81.7909 75.6971 80 77.9062 80Z" fill="url(#paint28_radial_56_3122)" fill-opacity="0.2"/>
<path d="M94.583 80C96.7921 80 98.583 81.7909 98.583 84C98.583 86.2091 96.7921 88 94.583 88C92.374 87.9998 90.583 86.209 90.583 84C90.583 81.791 92.374 80.0002 94.583 80Z" fill="url(#paint29_radial_56_3122)" fill-opacity="0.2"/>
<path d="M111.261 80C113.47 80.0002 115.261 81.791 115.261 84C115.261 86.209 113.47 87.9998 111.261 88C109.052 88 107.261 86.2091 107.261 84C107.261 81.7909 109.052 80 111.261 80Z" fill="url(#paint30_radial_56_3122)" fill-opacity="0.2"/>
<path d="M127.938 80C130.147 80 131.938 81.7909 131.938 84C131.938 86.2091 130.147 88 127.938 88C125.728 88 123.938 86.2091 123.938 84C123.938 81.7909 125.728 80 127.938 80Z" fill="url(#paint31_radial_56_3122)" fill-opacity="0.2"/>
<path d="M175 67.7246C170.602 69.1996 165.895 70 161 70C136.699 70 117 50.3005 117 26C117 16.2726 120.159 7.28443 125.504 0H175V67.7246Z" fill="url(#paint32_radial_56_3122)" fill-opacity="0.2"/>
<path d="M53.2295 60C55.4385 60.0002 57.2295 61.791 57.2295 64C57.2295 66.209 55.4385 67.9998 53.2295 68C51.0204 68 49.2295 66.2091 49.2295 64C49.2295 61.7909 51.0204 60 53.2295 60Z" fill="url(#paint33_radial_56_3122)" fill-opacity="0.2"/>
<path d="M69.9062 60C72.1154 60 73.9062 61.7909 73.9062 64C73.9062 66.2091 72.1154 68 69.9062 68C67.6971 68 65.9062 66.2091 65.9062 64C65.9062 61.7909 67.6971 60 69.9062 60Z" fill="url(#paint34_radial_56_3122)" fill-opacity="0.2"/>
<path d="M86.583 60C88.7921 60 90.583 61.7909 90.583 64C90.583 66.2091 88.7921 68 86.583 68C84.374 67.9998 82.583 66.209 82.583 64C82.583 61.791 84.374 60.0002 86.583 60Z" fill="url(#paint35_radial_56_3122)" fill-opacity="0.2"/>
<path d="M103.261 60C105.47 60.0002 107.261 61.791 107.261 64C107.261 66.209 105.47 67.9998 103.261 68C101.052 68 99.2607 66.2091 99.2607 64C99.2607 61.7909 101.052 60 103.261 60Z" fill="url(#paint36_radial_56_3122)" fill-opacity="0.2"/>
<path d="M119.938 60C122.147 60 123.938 61.7909 123.938 64C123.938 66.2091 122.147 68 119.938 68C117.728 68 115.938 66.2091 115.938 64C115.938 61.7909 117.728 60 119.938 60Z" fill="url(#paint37_radial_56_3122)" fill-opacity="0.2"/>
<path d="M68.5 40C70.7091 40 72.5 41.7909 72.5 44C72.5 46.2091 70.7091 48 68.5 48C66.2909 48 64.5 46.2091 64.5 44C64.5 41.7909 66.2909 40 68.5 40Z" fill="url(#paint38_radial_56_3122)" fill-opacity="0.2"/>
<path d="M85.1768 40C87.3859 40 89.1768 41.7909 89.1768 44C89.1768 46.2091 87.3859 48 85.1768 48C82.9678 47.9998 81.1768 46.209 81.1768 44C81.1768 41.791 82.9678 40.0002 85.1768 40Z" fill="url(#paint39_radial_56_3122)" fill-opacity="0.2"/>
<path d="M101.854 40C104.063 40.0002 105.854 41.791 105.854 44C105.854 46.209 104.063 47.9998 101.854 48C99.6454 48 97.8545 46.2091 97.8545 44C97.8545 41.7909 99.6454 40 101.854 40Z" fill="url(#paint40_radial_56_3122)" fill-opacity="0.2"/>
<path d="M113 158C136.634 158 158.273 166.54 175 180.703V200H33.6182C50.898 174.647 80.0043 158 113 158Z" stroke="url(#paint42_radial_56_3122)" stroke-opacity="0.1" stroke-width="2" mask="url(#path-1-inside-1_56_3122)"/>
<path d="M21 140C23.2091 140 25 141.791 25 144C25 146.209 23.2091 148 21 148C18.7909 148 17 146.209 17 144C17 141.791 18.7909 140 21 140Z" stroke="url(#paint43_radial_56_3122)" stroke-opacity="0.1" stroke-width="2" mask="url(#path-1-inside-1_56_3122)"/>
<path d="M37.6768 140C39.8859 140 41.6768 141.791 41.6768 144C41.6768 146.209 39.8859 148 37.6768 148C35.4678 148 33.6768 146.209 33.6768 144C33.6768 141.791 35.4678 140 37.6768 140Z" stroke="url(#paint44_radial_56_3122)" stroke-opacity="0.1" stroke-width="2" mask="url(#path-1-inside-1_56_3122)"/>
<path d="M54.3545 140C56.5635 140 58.3545 141.791 58.3545 144C58.3545 146.209 56.5635 148 54.3545 148C52.1454 148 50.3545 146.209 50.3545 144C50.3545 141.791 52.1454 140 54.3545 140Z" stroke="url(#paint45_radial_56_3122)" stroke-opacity="0.1" stroke-width="2" mask="url(#path-1-inside-1_56_3122)"/>
<path d="M71.0312 140C73.2404 140 75.0312 141.791 75.0312 144C75.0312 146.209 73.2404 148 71.0312 148C68.8221 148 67.0312 146.209 67.0312 144C67.0312 141.791 68.8221 140 71.0312 140Z" stroke="url(#paint46_radial_56_3122)" stroke-opacity="0.1" stroke-width="2" mask="url(#path-1-inside-1_56_3122)"/>
<path d="M87.708 140C89.9171 140 91.708 141.791 91.708 144C91.708 146.209 89.9171 148 87.708 148C85.499 148 83.708 146.209 83.708 144C83.708 141.791 85.499 140 87.708 140Z" stroke="url(#paint47_radial_56_3122)" stroke-opacity="0.1" stroke-width="2" mask="url(#path-1-inside-1_56_3122)"/>
<path d="M104.386 140C106.595 140 108.386 141.791 108.386 144C108.386 146.209 106.595 148 104.386 148C102.177 148 100.386 146.209 100.386 144C100.386 141.791 102.177 140 104.386 140Z" stroke="url(#paint48_radial_56_3122)" stroke-opacity="0.1" stroke-width="2" mask="url(#path-1-inside-1_56_3122)"/>
<path d="M121.062 140C123.272 140 125.062 141.791 125.062 144C125.062 146.209 123.272 148 121.062 148C118.853 148 117.062 146.209 117.062 144C117.062 141.791 118.853 140 121.062 140Z" stroke="url(#paint49_radial_56_3122)" stroke-opacity="0.1" stroke-width="2" mask="url(#path-1-inside-1_56_3122)"/>
<path d="M137.739 140C139.948 140 141.739 141.791 141.739 144C141.739 146.209 139.948 148 137.739 148C135.53 148 133.739 146.209 133.739 144C133.739 141.791 135.53 140 137.739 140Z" stroke="url(#paint50_radial_56_3122)" stroke-opacity="0.1" stroke-width="2" mask="url(#path-1-inside-1_56_3122)"/>
<path d="M154.417 140C156.626 140 158.417 141.791 158.417 144C158.417 146.209 156.626 148 154.417 148C152.208 148 150.417 146.209 150.417 144C150.417 141.791 152.208 140 154.417 140Z" stroke="url(#paint51_radial_56_3122)" stroke-opacity="0.1" stroke-width="2" mask="url(#path-1-inside-1_56_3122)"/>
<path d="M28.4375 120C30.6466 120 32.4375 121.791 32.4375 124C32.4375 126.209 30.6466 128 28.4375 128C26.2284 128 24.4375 126.209 24.4375 124C24.4375 121.791 26.2284 120 28.4375 120Z" stroke="url(#paint52_radial_56_3122)" stroke-opacity="0.1" stroke-width="2" mask="url(#path-1-inside-1_56_3122)"/>
<path d="M45.1143 120C47.3234 120 49.1143 121.791 49.1143 124C49.1143 126.209 47.3234 128 45.1143 128C42.9053 128 41.1143 126.209 41.1143 124C41.1143 121.791 42.9053 120 45.1143 120Z" stroke="url(#paint53_radial_56_3122)" stroke-opacity="0.1" stroke-width="2" mask="url(#path-1-inside-1_56_3122)"/>
<path d="M61.792 120C64.001 120 65.792 121.791 65.792 124C65.792 126.209 64.001 128 61.792 128C59.5829 128 57.792 126.209 57.792 124C57.792 121.791 59.5829 120 61.792 120Z" stroke="url(#paint54_radial_56_3122)" stroke-opacity="0.1" stroke-width="2" mask="url(#path-1-inside-1_56_3122)"/>
<path d="M78.4688 120C80.6779 120 82.4688 121.791 82.4688 124C82.4688 126.209 80.6779 128 78.4688 128C76.2596 128 74.4688 126.209 74.4688 124C74.4688 121.791 76.2596 120 78.4688 120Z" stroke="url(#paint55_radial_56_3122)" stroke-opacity="0.1" stroke-width="2" mask="url(#path-1-inside-1_56_3122)"/>
<path d="M95.1455 120C97.3546 120 99.1455 121.791 99.1455 124C99.1455 126.209 97.3546 128 95.1455 128C92.9365 128 91.1455 126.209 91.1455 124C91.1455 121.791 92.9365 120 95.1455 120Z" stroke="url(#paint56_radial_56_3122)" stroke-opacity="0.1" stroke-width="2" mask="url(#path-1-inside-1_56_3122)"/>
<path d="M111.823 120C114.032 120 115.823 121.791 115.823 124C115.823 126.209 114.032 128 111.823 128C109.614 128 107.823 126.209 107.823 124C107.823 121.791 109.614 120 111.823 120Z" stroke="url(#paint57_radial_56_3122)" stroke-opacity="0.1" stroke-width="2" mask="url(#path-1-inside-1_56_3122)"/>
<path d="M128.5 120C130.709 120 132.5 121.791 132.5 124C132.5 126.209 130.709 128 128.5 128C126.291 128 124.5 126.209 124.5 124C124.5 121.791 126.291 120 128.5 120Z" stroke="url(#paint58_radial_56_3122)" stroke-opacity="0.1" stroke-width="2" mask="url(#path-1-inside-1_56_3122)"/>
<path d="M145.177 120C147.386 120 149.177 121.791 149.177 124C149.177 126.209 147.386 128 145.177 128C142.968 128 141.177 126.209 141.177 124C141.177 121.791 142.968 120 145.177 120Z" stroke="url(#paint59_radial_56_3122)" stroke-opacity="0.1" stroke-width="2" mask="url(#path-1-inside-1_56_3122)"/>
<path d="M14.9521 0C29.6106 11.728 39 29.7672 39 50C39 76.4756 22.9235 99.196 0 108.933V0H14.9521Z" stroke="url(#paint60_radial_56_3122)" stroke-opacity="0.1" stroke-width="2" mask="url(#path-1-inside-1_56_3122)"/>
<path d="M37.1143 100C39.3234 100 41.1143 101.791 41.1143 104C41.1143 106.209 39.3234 108 37.1143 108C34.9053 108 33.1143 106.209 33.1143 104C33.1143 101.791 34.9053 100 37.1143 100Z" stroke="url(#paint61_radial_56_3122)" stroke-opacity="0.1" stroke-width="2" mask="url(#path-1-inside-1_56_3122)"/>
<path d="M53.792 100C56.001 100 57.792 101.791 57.792 104C57.792 106.209 56.001 108 53.792 108C51.5829 108 49.792 106.209 49.792 104C49.792 101.791 51.5829 100 53.792 100Z" stroke="url(#paint62_radial_56_3122)" stroke-opacity="0.1" stroke-width="2" mask="url(#path-1-inside-1_56_3122)"/>
<path d="M70.4688 100C72.6779 100 74.4688 101.791 74.4688 104C74.4688 106.209 72.6779 108 70.4688 108C68.2596 108 66.4688 106.209 66.4688 104C66.4688 101.791 68.2596 100 70.4688 100Z" stroke="url(#paint63_radial_56_3122)" stroke-opacity="0.1" stroke-width="2" mask="url(#path-1-inside-1_56_3122)"/>
<path d="M87.1455 100C89.3546 100 91.1455 101.791 91.1455 104C91.1455 106.209 89.3546 108 87.1455 108C84.9365 108 83.1455 106.209 83.1455 104C83.1455 101.791 84.9365 100 87.1455 100Z" stroke="url(#paint64_radial_56_3122)" stroke-opacity="0.1" stroke-width="2" mask="url(#path-1-inside-1_56_3122)"/>
<path d="M103.823 100C106.032 100 107.823 101.791 107.823 104C107.823 106.209 106.032 108 103.823 108C101.614 108 99.8232 106.209 99.8232 104C99.8232 101.791 101.614 100 103.823 100Z" stroke="url(#paint65_radial_56_3122)" stroke-opacity="0.1" stroke-width="2" mask="url(#path-1-inside-1_56_3122)"/>
<path d="M120.5 100C122.709 100 124.5 101.791 124.5 104C124.5 106.209 122.709 108 120.5 108C118.291 108 116.5 106.209 116.5 104C116.5 101.791 118.291 100 120.5 100Z" stroke="url(#paint66_radial_56_3122)" stroke-opacity="0.1" stroke-width="2" mask="url(#path-1-inside-1_56_3122)"/>
<path d="M137.177 100C139.386 100 141.177 101.791 141.177 104C141.177 106.209 139.386 108 137.177 108C134.968 108 133.177 106.209 133.177 104C133.177 101.791 134.968 100 137.177 100Z" stroke="url(#paint67_radial_56_3122)" stroke-opacity="0.1" stroke-width="2" mask="url(#path-1-inside-1_56_3122)"/>
<path d="M44.5518 80C46.7609 80 48.5518 81.7909 48.5518 84C48.5518 86.2091 46.7609 88 44.5518 88C42.3428 87.9998 40.5518 86.209 40.5518 84C40.5518 81.791 42.3428 80.0002 44.5518 80Z" stroke="url(#paint68_radial_56_3122)" stroke-opacity="0.1" stroke-width="2" mask="url(#path-1-inside-1_56_3122)"/>
<path d="M61.2295 80C63.4385 80.0002 65.2295 81.791 65.2295 84C65.2295 86.209 63.4385 87.9998 61.2295 88C59.0204 88 57.2295 86.2091 57.2295 84C57.2295 81.7909 59.0204 80 61.2295 80Z" stroke="url(#paint69_radial_56_3122)" stroke-opacity="0.1" stroke-width="2" mask="url(#path-1-inside-1_56_3122)"/>
<path d="M77.9062 80C80.1154 80 81.9062 81.7909 81.9062 84C81.9062 86.2091 80.1154 88 77.9062 88C75.6971 88 73.9062 86.2091 73.9062 84C73.9062 81.7909 75.6971 80 77.9062 80Z" stroke="url(#paint70_radial_56_3122)" stroke-opacity="0.1" stroke-width="2" mask="url(#path-1-inside-1_56_3122)"/>
<path d="M94.583 80C96.7921 80 98.583 81.7909 98.583 84C98.583 86.2091 96.7921 88 94.583 88C92.374 87.9998 90.583 86.209 90.583 84C90.583 81.791 92.374 80.0002 94.583 80Z" stroke="url(#paint71_radial_56_3122)" stroke-opacity="0.1" stroke-width="2" mask="url(#path-1-inside-1_56_3122)"/>
<path d="M111.261 80C113.47 80.0002 115.261 81.791 115.261 84C115.261 86.209 113.47 87.9998 111.261 88C109.052 88 107.261 86.2091 107.261 84C107.261 81.7909 109.052 80 111.261 80Z" stroke="url(#paint72_radial_56_3122)" stroke-opacity="0.1" stroke-width="2" mask="url(#path-1-inside-1_56_3122)"/>
<path d="M127.938 80C130.147 80 131.938 81.7909 131.938 84C131.938 86.2091 130.147 88 127.938 88C125.728 88 123.938 86.2091 123.938 84C123.938 81.7909 125.728 80 127.938 80Z" stroke="url(#paint73_radial_56_3122)" stroke-opacity="0.1" stroke-width="2" mask="url(#path-1-inside-1_56_3122)"/>
<path d="M175 67.7246C170.602 69.1996 165.895 70 161 70C136.699 70 117 50.3005 117 26C117 16.2726 120.159 7.28443 125.504 0H175V67.7246Z" stroke="url(#paint74_radial_56_3122)" stroke-opacity="0.1" stroke-width="2" mask="url(#path-1-inside-1_56_3122)"/>
<path d="M53.2295 60C55.4385 60.0002 57.2295 61.791 57.2295 64C57.2295 66.209 55.4385 67.9998 53.2295 68C51.0204 68 49.2295 66.2091 49.2295 64C49.2295 61.7909 51.0204 60 53.2295 60Z" stroke="url(#paint75_radial_56_3122)" stroke-opacity="0.1" stroke-width="2" mask="url(#path-1-inside-1_56_3122)"/>
<path d="M69.9062 60C72.1154 60 73.9062 61.7909 73.9062 64C73.9062 66.2091 72.1154 68 69.9062 68C67.6971 68 65.9062 66.2091 65.9062 64C65.9062 61.7909 67.6971 60 69.9062 60Z" stroke="url(#paint76_radial_56_3122)" stroke-opacity="0.1" stroke-width="2" mask="url(#path-1-inside-1_56_3122)"/>
<path d="M86.583 60C88.7921 60 90.583 61.7909 90.583 64C90.583 66.2091 88.7921 68 86.583 68C84.374 67.9998 82.583 66.209 82.583 64C82.583 61.791 84.374 60.0002 86.583 60Z" stroke="url(#paint77_radial_56_3122)" stroke-opacity="0.1" stroke-width="2" mask="url(#path-1-inside-1_56_3122)"/>
<path d="M103.261 60C105.47 60.0002 107.261 61.791 107.261 64C107.261 66.209 105.47 67.9998 103.261 68C101.052 68 99.2607 66.2091 99.2607 64C99.2607 61.7909 101.052 60 103.261 60Z" stroke="url(#paint78_radial_56_3122)" stroke-opacity="0.1" stroke-width="2" mask="url(#path-1-inside-1_56_3122)"/>
<path d="M119.938 60C122.147 60 123.938 61.7909 123.938 64C123.938 66.2091 122.147 68 119.938 68C117.728 68 115.938 66.2091 115.938 64C115.938 61.7909 117.728 60 119.938 60Z" stroke="url(#paint79_radial_56_3122)" stroke-opacity="0.1" stroke-width="2" mask="url(#path-1-inside-1_56_3122)"/>
<path d="M68.5 40C70.7091 40 72.5 41.7909 72.5 44C72.5 46.2091 70.7091 48 68.5 48C66.2909 48 64.5 46.2091 64.5 44C64.5 41.7909 66.2909 40 68.5 40Z" stroke="url(#paint80_radial_56_3122)" stroke-opacity="0.1" stroke-width="2" mask="url(#path-1-inside-1_56_3122)"/>
<path d="M85.1768 40C87.3859 40 89.1768 41.7909 89.1768 44C89.1768 46.2091 87.3859 48 85.1768 48C82.9678 47.9998 81.1768 46.209 81.1768 44C81.1768 41.791 82.9678 40.0002 85.1768 40Z" stroke="url(#paint81_radial_56_3122)" stroke-opacity="0.1" stroke-width="2" mask="url(#path-1-inside-1_56_3122)"/>
<path d="M101.854 40C104.063 40.0002 105.854 41.791 105.854 44C105.854 46.209 104.063 47.9998 101.854 48C99.6454 48 97.8545 46.2091 97.8545 44C97.8545 41.7909 99.6454 40 101.854 40Z" stroke="url(#paint82_radial_56_3122)" stroke-opacity="0.1" stroke-width="2" mask="url(#path-1-inside-1_56_3122)"/>
</g>
<defs>
<radialGradient id="paint0_radial_56_3122" cx="0" cy="0" r="1" gradientUnits="userSpaceOnUse" gradientTransform="translate(88 104.5) rotate(-90) scale(180 166.584)">
<stop stop-color="white"/>
<stop offset="1" stop-color="white" stop-opacity="0"/>
</radialGradient>
<radialGradient id="paint1_radial_56_3122" cx="0" cy="0" r="1" gradientUnits="userSpaceOnUse" gradientTransform="translate(88 104.5) rotate(-90) scale(180 166.584)">
<stop stop-color="white"/>
<stop offset="1" stop-color="white" stop-opacity="0"/>
</radialGradient>
<radialGradient id="paint2_radial_56_3122" cx="0" cy="0" r="1" gradientUnits="userSpaceOnUse" gradientTransform="translate(88 104.5) rotate(-90) scale(180 166.584)">
<stop stop-color="white"/>
<stop offset="1" stop-color="white" stop-opacity="0"/>
</radialGradient>
<radialGradient id="paint3_radial_56_3122" cx="0" cy="0" r="1" gradientUnits="userSpaceOnUse" gradientTransform="translate(88 104.5) rotate(-90) scale(180 166.584)">
<stop stop-color="white"/>
<stop offset="1" stop-color="white" stop-opacity="0"/>
</radialGradient>
<radialGradient id="paint4_radial_56_3122" cx="0" cy="0" r="1" gradientUnits="userSpaceOnUse" gradientTransform="translate(88 104.5) rotate(-90) scale(180 166.584)">
<stop stop-color="white"/>
<stop offset="1" stop-color="white" stop-opacity="0"/>
</radialGradient>
<radialGradient id="paint5_radial_56_3122" cx="0" cy="0" r="1" gradientUnits="userSpaceOnUse" gradientTransform="translate(88 104.5) rotate(-90) scale(180 166.584)">
<stop stop-color="white"/>
<stop offset="1" stop-color="white" stop-opacity="0"/>
</radialGradient>
<radialGradient id="paint6_radial_56_3122" cx="0" cy="0" r="1" gradientUnits="userSpaceOnUse" gradientTransform="translate(88 104.5) rotate(-90) scale(180 166.584)">
<stop stop-color="white"/>
<stop offset="1" stop-color="white" stop-opacity="0"/>
</radialGradient>
<radialGradient id="paint7_radial_56_3122" cx="0" cy="0" r="1" gradientUnits="userSpaceOnUse" gradientTransform="translate(88 104.5) rotate(-90) scale(180 166.584)">
<stop stop-color="white"/>
<stop offset="1" stop-color="white" stop-opacity="0"/>
</radialGradient>
<radialGradient id="paint8_radial_56_3122" cx="0" cy="0" r="1" gradientUnits="userSpaceOnUse" gradientTransform="translate(88 104.5) rotate(-90) scale(180 166.584)">
<stop stop-color="white"/>
<stop offset="1" stop-color="white" stop-opacity="0"/>
</radialGradient>
<radialGradient id="paint9_radial_56_3122" cx="0" cy="0" r="1" gradientUnits="userSpaceOnUse" gradientTransform="translate(88 104.5) rotate(-90) scale(180 166.584)">
<stop stop-color="white"/>
<stop offset="1" stop-color="white" stop-opacity="0"/>
</radialGradient>
<radialGradient id="paint10_radial_56_3122" cx="0" cy="0" r="1" gradientUnits="userSpaceOnUse" gradientTransform="translate(88 104.5) rotate(-90) scale(180 166.584)">
<stop stop-color="white"/>
<stop offset="1" stop-color="white" stop-opacity="0"/>
</radialGradient>
<radialGradient id="paint11_radial_56_3122" cx="0" cy="0" r="1" gradientUnits="userSpaceOnUse" gradientTransform="translate(88 104.5) rotate(-90) scale(180 166.584)">
<stop stop-color="white"/>
<stop offset="1" stop-color="white" stop-opacity="0"/>
</radialGradient>
<radialGradient id="paint12_radial_56_3122" cx="0" cy="0" r="1" gradientUnits="userSpaceOnUse" gradientTransform="translate(88 104.5) rotate(-90) scale(180 166.584)">
<stop stop-color="white"/>
<stop offset="1" stop-color="white" stop-opacity="0"/>
</radialGradient>
<radialGradient id="paint13_radial_56_3122" cx="0" cy="0" r="1" gradientUnits="userSpaceOnUse" gradientTransform="translate(88 104.5) rotate(-90) scale(180 166.584)">
<stop stop-color="white"/>
<stop offset="1" stop-color="white" stop-opacity="0"/>
</radialGradient>
<radialGradient id="paint14_radial_56_3122" cx="0" cy="0" r="1" gradientUnits="userSpaceOnUse" gradientTransform="translate(88 104.5) rotate(-90) scale(180 166.584)">
<stop stop-color="white"/>
<stop offset="1" stop-color="white" stop-opacity="0"/>
</radialGradient>
<radialGradient id="paint15_radial_56_3122" cx="0" cy="0" r="1" gradientUnits="userSpaceOnUse" gradientTransform="translate(88 104.5) rotate(-90) scale(180 166.584)">
<stop stop-color="white"/>
<stop offset="1" stop-color="white" stop-opacity="0"/>
</radialGradient>
<radialGradient id="paint16_radial_56_3122" cx="0" cy="0" r="1" gradientUnits="userSpaceOnUse" gradientTransform="translate(88 104.5) rotate(-90) scale(180 166.584)">
<stop stop-color="white"/>
<stop offset="1" stop-color="white" stop-opacity="0"/>
</radialGradient>
<radialGradient id="paint17_radial_56_3122" cx="0" cy="0" r="1" gradientUnits="userSpaceOnUse" gradientTransform="translate(88 104.5) rotate(-90) scale(180 166.584)">
<stop stop-color="white"/>
<stop offset="1" stop-color="white" stop-opacity="0"/>
</radialGradient>
<radialGradient id="paint18_radial_56_3122" cx="0" cy="0" r="1" gradientUnits="userSpaceOnUse" gradientTransform="translate(88 104.5) rotate(-90) scale(180 166.584)">
<stop stop-color="white"/>
<stop offset="1" stop-color="white" stop-opacity="0"/>
</radialGradient>
<radialGradient id="paint19_radial_56_3122" cx="0" cy="0" r="1" gradientUnits="userSpaceOnUse" gradientTransform="translate(88 104.5) rotate(-90) scale(180 166.584)">
<stop stop-color="white"/>
<stop offset="1" stop-color="white" stop-opacity="0"/>
</radialGradient>
<radialGradient id="paint20_radial_56_3122" cx="0" cy="0" r="1" gradientUnits="userSpaceOnUse" gradientTransform="translate(88 104.5) rotate(-90) scale(180 166.584)">
<stop stop-color="white"/>
<stop offset="1" stop-color="white" stop-opacity="0"/>
</radialGradient>
<radialGradient id="paint21_radial_56_3122" cx="0" cy="0" r="1" gradientUnits="userSpaceOnUse" gradientTransform="translate(88 104.5) rotate(-90) scale(180 166.584)">
<stop stop-color="white"/>
<stop offset="1" stop-color="white" stop-opacity="0"/>
</radialGradient>
<radialGradient id="paint22_radial_56_3122" cx="0" cy="0" r="1" gradientUnits="userSpaceOnUse" gradientTransform="translate(88 104.5) rotate(-90) scale(180 166.584)">
<stop stop-color="white"/>
<stop offset="1" stop-color="white" stop-opacity="0"/>
</radialGradient>
<radialGradient id="paint23_radial_56_3122" cx="0" cy="0" r="1" gradientUnits="userSpaceOnUse" gradientTransform="translate(88 104.5) rotate(-90) scale(180 166.584)">
<stop stop-color="white"/>
<stop offset="1" stop-color="white" stop-opacity="0"/>
</radialGradient>
<radialGradient id="paint24_radial_56_3122" cx="0" cy="0" r="1" gradientUnits="userSpaceOnUse" gradientTransform="translate(88 104.5) rotate(-90) scale(180 166.584)">
<stop stop-color="white"/>
<stop offset="1" stop-color="white" stop-opacity="0"/>
</radialGradient>
<radialGradient id="paint25_radial_56_3122" cx="0" cy="0" r="1" gradientUnits="userSpaceOnUse" gradientTransform="translate(88 104.5) rotate(-90) scale(180 166.584)">
<stop stop-color="white"/>
<stop offset="1" stop-color="white" stop-opacity="0"/>
</radialGradient>
<radialGradient id="paint26_radial_56_3122" cx="0" cy="0" r="1" gradientUnits="userSpaceOnUse" gradientTransform="translate(88 104.5) rotate(-90) scale(180 166.584)">
<stop stop-color="white"/>
<stop offset="1" stop-color="white" stop-opacity="0"/>
</radialGradient>
<radialGradient id="paint27_radial_56_3122" cx="0" cy="0" r="1" gradientUnits="userSpaceOnUse" gradientTransform="translate(88 104.5) rotate(-90) scale(180 166.584)">
<stop stop-color="white"/>
<stop offset="1" stop-color="white" stop-opacity="0"/>
</radialGradient>
<radialGradient id="paint28_radial_56_3122" cx="0" cy="0" r="1" gradientUnits="userSpaceOnUse" gradientTransform="translate(88 104.5) rotate(-90) scale(180 166.584)">
<stop stop-color="white"/>
<stop offset="1" stop-color="white" stop-opacity="0"/>
</radialGradient>
<radialGradient id="paint29_radial_56_3122" cx="0" cy="0" r="1" gradientUnits="userSpaceOnUse" gradientTransform="translate(88 104.5) rotate(-90) scale(180 166.584)">
<stop stop-color="white"/>
<stop offset="1" stop-color="white" stop-opacity="0"/>
</radialGradient>
<radialGradient id="paint30_radial_56_3122" cx="0" cy="0" r="1" gradientUnits="userSpaceOnUse" gradientTransform="translate(88 104.5) rotate(-90) scale(180 166.584)">
<stop stop-color="white"/>
<stop offset="1" stop-color="white" stop-opacity="0"/>
</radialGradient>
<radialGradient id="paint31_radial_56_3122" cx="0" cy="0" r="1" gradientUnits="userSpaceOnUse" gradientTransform="translate(88 104.5) rotate(-90) scale(180 166.584)">
<stop stop-color="white"/>
<stop offset="1" stop-color="white" stop-opacity="0"/>
</radialGradient>
<radialGradient id="paint32_radial_56_3122" cx="0" cy="0" r="1" gradientUnits="userSpaceOnUse" gradientTransform="translate(88 104.5) rotate(-90) scale(180 166.584)">
<stop stop-color="white"/>
<stop offset="1" stop-color="white" stop-opacity="0"/>
</radialGradient>
<radialGradient id="paint33_radial_56_3122" cx="0" cy="0" r="1" gradientUnits="userSpaceOnUse" gradientTransform="translate(88 104.5) rotate(-90) scale(180 166.584)">
<stop stop-color="white"/>
<stop offset="1" stop-color="white" stop-opacity="0"/>
</radialGradient>
<radialGradient id="paint34_radial_56_3122" cx="0" cy="0" r="1" gradientUnits="userSpaceOnUse" gradientTransform="translate(88 104.5) rotate(-90) scale(180 166.584)">
<stop stop-color="white"/>
<stop offset="1" stop-color="white" stop-opacity="0"/>
</radialGradient>
<radialGradient id="paint35_radial_56_3122" cx="0" cy="0" r="1" gradientUnits="userSpaceOnUse" gradientTransform="translate(88 104.5) rotate(-90) scale(180 166.584)">
<stop stop-color="white"/>
<stop offset="1" stop-color="white" stop-opacity="0"/>
</radialGradient>
<radialGradient id="paint36_radial_56_3122" cx="0" cy="0" r="1" gradientUnits="userSpaceOnUse" gradientTransform="translate(88 104.5) rotate(-90) scale(180 166.584)">
<stop stop-color="white"/>
<stop offset="1" stop-color="white" stop-opacity="0"/>
</radialGradient>
<radialGradient id="paint37_radial_56_3122" cx="0" cy="0" r="1" gradientUnits="userSpaceOnUse" gradientTransform="translate(88 104.5) rotate(-90) scale(180 166.584)">
<stop stop-color="white"/>
<stop offset="1" stop-color="white" stop-opacity="0"/>
</radialGradient>
<radialGradient id="paint38_radial_56_3122" cx="0" cy="0" r="1" gradientUnits="userSpaceOnUse" gradientTransform="translate(88 104.5) rotate(-90) scale(180 166.584)">
<stop stop-color="white"/>
<stop offset="1" stop-color="white" stop-opacity="0"/>
</radialGradient>
<radialGradient id="paint39_radial_56_3122" cx="0" cy="0" r="1" gradientUnits="userSpaceOnUse" gradientTransform="translate(88 104.5) rotate(-90) scale(180 166.584)">
<stop stop-color="white"/>
<stop offset="1" stop-color="white" stop-opacity="0"/>
</radialGradient>
<radialGradient id="paint40_radial_56_3122" cx="0" cy="0" r="1" gradientUnits="userSpaceOnUse" gradientTransform="translate(88 104.5) rotate(-90) scale(180 166.584)">
<stop stop-color="white"/>
<stop offset="1" stop-color="white" stop-opacity="0"/>
</radialGradient>
<radialGradient id="paint41_radial_56_3122" cx="0" cy="0" r="1" gradientUnits="userSpaceOnUse" gradientTransform="translate(88 104.5) rotate(-90) scale(180 166.584)">
<stop stop-color="white"/>
<stop offset="1" stop-color="white" stop-opacity="0"/>
</radialGradient>
<radialGradient id="paint42_radial_56_3122" cx="0" cy="0" r="1" gradientUnits="userSpaceOnUse" gradientTransform="translate(88 100) rotate(-90) scale(153 133.875)">
<stop stop-color="white"/>
<stop offset="1" stop-color="white" stop-opacity="0"/>
</radialGradient>
<radialGradient id="paint43_radial_56_3122" cx="0" cy="0" r="1" gradientUnits="userSpaceOnUse" gradientTransform="translate(88 100) rotate(-90) scale(153 133.875)">
<stop stop-color="white"/>
<stop offset="1" stop-color="white" stop-opacity="0"/>
</radialGradient>
<radialGradient id="paint44_radial_56_3122" cx="0" cy="0" r="1" gradientUnits="userSpaceOnUse" gradientTransform="translate(88 100) rotate(-90) scale(153 133.875)">
<stop stop-color="white"/>
<stop offset="1" stop-color="white" stop-opacity="0"/>
</radialGradient>
<radialGradient id="paint45_radial_56_3122" cx="0" cy="0" r="1" gradientUnits="userSpaceOnUse" gradientTransform="translate(88 100) rotate(-90) scale(153 133.875)">
<stop stop-color="white"/>
<stop offset="1" stop-color="white" stop-opacity="0"/>
</radialGradient>
<radialGradient id="paint46_radial_56_3122" cx="0" cy="0" r="1" gradientUnits="userSpaceOnUse" gradientTransform="translate(88 100) rotate(-90) scale(153 133.875)">
<stop stop-color="white"/>
<stop offset="1" stop-color="white" stop-opacity="0"/>
</radialGradient>
<radialGradient id="paint47_radial_56_3122" cx="0" cy="0" r="1" gradientUnits="userSpaceOnUse" gradientTransform="translate(88 100) rotate(-90) scale(153 133.875)">
<stop stop-color="white"/>
<stop offset="1" stop-color="white" stop-opacity="0"/>
</radialGradient>
<radialGradient id="paint48_radial_56_3122" cx="0" cy="0" r="1" gradientUnits="userSpaceOnUse" gradientTransform="translate(88 100) rotate(-90) scale(153 133.875)">
<stop stop-color="white"/>
<stop offset="1" stop-color="white" stop-opacity="0"/>
</radialGradient>
<radialGradient id="paint49_radial_56_3122" cx="0" cy="0" r="1" gradientUnits="userSpaceOnUse" gradientTransform="translate(88 100) rotate(-90) scale(153 133.875)">
<stop stop-color="white"/>
<stop offset="1" stop-color="white" stop-opacity="0"/>
</radialGradient>
<radialGradient id="paint50_radial_56_3122" cx="0" cy="0" r="1" gradientUnits="userSpaceOnUse" gradientTransform="translate(88 100) rotate(-90) scale(153 133.875)">
<stop stop-color="white"/>
<stop offset="1" stop-color="white" stop-opacity="0"/>
</radialGradient>
<radialGradient id="paint51_radial_56_3122" cx="0" cy="0" r="1" gradientUnits="userSpaceOnUse" gradientTransform="translate(88 100) rotate(-90) scale(153 133.875)">
<stop stop-color="white"/>
<stop offset="1" stop-color="white" stop-opacity="0"/>
</radialGradient>
<radialGradient id="paint52_radial_56_3122" cx="0" cy="0" r="1" gradientUnits="userSpaceOnUse" gradientTransform="translate(88 100) rotate(-90) scale(153 133.875)">
<stop stop-color="white"/>
<stop offset="1" stop-color="white" stop-opacity="0"/>
</radialGradient>
<radialGradient id="paint53_radial_56_3122" cx="0" cy="0" r="1" gradientUnits="userSpaceOnUse" gradientTransform="translate(88 100) rotate(-90) scale(153 133.875)">
<stop stop-color="white"/>
<stop offset="1" stop-color="white" stop-opacity="0"/>
</radialGradient>
<radialGradient id="paint54_radial_56_3122" cx="0" cy="0" r="1" gradientUnits="userSpaceOnUse" gradientTransform="translate(88 100) rotate(-90) scale(153 133.875)">
<stop stop-color="white"/>
<stop offset="1" stop-color="white" stop-opacity="0"/>
</radialGradient>
<radialGradient id="paint55_radial_56_3122" cx="0" cy="0" r="1" gradientUnits="userSpaceOnUse" gradientTransform="translate(88 100) rotate(-90) scale(153 133.875)">
<stop stop-color="white"/>
<stop offset="1" stop-color="white" stop-opacity="0"/>
</radialGradient>
<radialGradient id="paint56_radial_56_3122" cx="0" cy="0" r="1" gradientUnits="userSpaceOnUse" gradientTransform="translate(88 100) rotate(-90) scale(153 133.875)">
<stop stop-color="white"/>
<stop offset="1" stop-color="white" stop-opacity="0"/>
</radialGradient>
<radialGradient id="paint57_radial_56_3122" cx="0" cy="0" r="1" gradientUnits="userSpaceOnUse" gradientTransform="translate(88 100) rotate(-90) scale(153 133.875)">
<stop stop-color="white"/>
<stop offset="1" stop-color="white" stop-opacity="0"/>
</radialGradient>
<radialGradient id="paint58_radial_56_3122" cx="0" cy="0" r="1" gradientUnits="userSpaceOnUse" gradientTransform="translate(88 100) rotate(-90) scale(153 133.875)">
<stop stop-color="white"/>
<stop offset="1" stop-color="white" stop-opacity="0"/>
</radialGradient>
<radialGradient id="paint59_radial_56_3122" cx="0" cy="0" r="1" gradientUnits="userSpaceOnUse" gradientTransform="translate(88 100) rotate(-90) scale(153 133.875)">
<stop stop-color="white"/>
<stop offset="1" stop-color="white" stop-opacity="0"/>
</radialGradient>
<radialGradient id="paint60_radial_56_3122" cx="0" cy="0" r="1" gradientUnits="userSpaceOnUse" gradientTransform="translate(88 100) rotate(-90) scale(153 133.875)">
<stop stop-color="white"/>
<stop offset="1" stop-color="white" stop-opacity="0"/>
</radialGradient>
<radialGradient id="paint61_radial_56_3122" cx="0" cy="0" r="1" gradientUnits="userSpaceOnUse" gradientTransform="translate(88 100) rotate(-90) scale(153 133.875)">
<stop stop-color="white"/>
<stop offset="1" stop-color="white" stop-opacity="0"/>
</radialGradient>
<radialGradient id="paint62_radial_56_3122" cx="0" cy="0" r="1" gradientUnits="userSpaceOnUse" gradientTransform="translate(88 100) rotate(-90) scale(153 133.875)">
<stop stop-color="white"/>
<stop offset="1" stop-color="white" stop-opacity="0"/>
</radialGradient>
<radialGradient id="paint63_radial_56_3122" cx="0" cy="0" r="1" gradientUnits="userSpaceOnUse" gradientTransform="translate(88 100) rotate(-90) scale(153 133.875)">
<stop stop-color="white"/>
<stop offset="1" stop-color="white" stop-opacity="0"/>
</radialGradient>
<radialGradient id="paint64_radial_56_3122" cx="0" cy="0" r="1" gradientUnits="userSpaceOnUse" gradientTransform="translate(88 100) rotate(-90) scale(153 133.875)">
<stop stop-color="white"/>
<stop offset="1" stop-color="white" stop-opacity="0"/>
</radialGradient>
<radialGradient id="paint65_radial_56_3122" cx="0" cy="0" r="1" gradientUnits="userSpaceOnUse" gradientTransform="translate(88 100) rotate(-90) scale(153 133.875)">
<stop stop-color="white"/>
<stop offset="1" stop-color="white" stop-opacity="0"/>
</radialGradient>
<radialGradient id="paint66_radial_56_3122" cx="0" cy="0" r="1" gradientUnits="userSpaceOnUse" gradientTransform="translate(88 100) rotate(-90) scale(153 133.875)">
<stop stop-color="white"/>
<stop offset="1" stop-color="white" stop-opacity="0"/>
</radialGradient>
<radialGradient id="paint67_radial_56_3122" cx="0" cy="0" r="1" gradientUnits="userSpaceOnUse" gradientTransform="translate(88 100) rotate(-90) scale(153 133.875)">
<stop stop-color="white"/>
<stop offset="1" stop-color="white" stop-opacity="0"/>
</radialGradient>
<radialGradient id="paint68_radial_56_3122" cx="0" cy="0" r="1" gradientUnits="userSpaceOnUse" gradientTransform="translate(88 100) rotate(-90) scale(153 133.875)">
<stop stop-color="white"/>
<stop offset="1" stop-color="white" stop-opacity="0"/>
</radialGradient>
<radialGradient id="paint69_radial_56_3122" cx="0" cy="0" r="1" gradientUnits="userSpaceOnUse" gradientTransform="translate(88 100) rotate(-90) scale(153 133.875)">
<stop stop-color="white"/>
<stop offset="1" stop-color="white" stop-opacity="0"/>
</radialGradient>
<radialGradient id="paint70_radial_56_3122" cx="0" cy="0" r="1" gradientUnits="userSpaceOnUse" gradientTransform="translate(88 100) rotate(-90) scale(153 133.875)">
<stop stop-color="white"/>
<stop offset="1" stop-color="white" stop-opacity="0"/>
</radialGradient>
<radialGradient id="paint71_radial_56_3122" cx="0" cy="0" r="1" gradientUnits="userSpaceOnUse" gradientTransform="translate(88 100) rotate(-90) scale(153 133.875)">
<stop stop-color="white"/>
<stop offset="1" stop-color="white" stop-opacity="0"/>
</radialGradient>
<radialGradient id="paint72_radial_56_3122" cx="0" cy="0" r="1" gradientUnits="userSpaceOnUse" gradientTransform="translate(88 100) rotate(-90) scale(153 133.875)">
<stop stop-color="white"/>
<stop offset="1" stop-color="white" stop-opacity="0"/>
</radialGradient>
<radialGradient id="paint73_radial_56_3122" cx="0" cy="0" r="1" gradientUnits="userSpaceOnUse" gradientTransform="translate(88 100) rotate(-90) scale(153 133.875)">
<stop stop-color="white"/>
<stop offset="1" stop-color="white" stop-opacity="0"/>
</radialGradient>
<radialGradient id="paint74_radial_56_3122" cx="0" cy="0" r="1" gradientUnits="userSpaceOnUse" gradientTransform="translate(88 100) rotate(-90) scale(153 133.875)">
<stop stop-color="white"/>
<stop offset="1" stop-color="white" stop-opacity="0"/>
</radialGradient>
<radialGradient id="paint75_radial_56_3122" cx="0" cy="0" r="1" gradientUnits="userSpaceOnUse" gradientTransform="translate(88 100) rotate(-90) scale(153 133.875)">
<stop stop-color="white"/>
<stop offset="1" stop-color="white" stop-opacity="0"/>
</radialGradient>
<radialGradient id="paint76_radial_56_3122" cx="0" cy="0" r="1" gradientUnits="userSpaceOnUse" gradientTransform="translate(88 100) rotate(-90) scale(153 133.875)">
<stop stop-color="white"/>
<stop offset="1" stop-color="white" stop-opacity="0"/>
</radialGradient>
<radialGradient id="paint77_radial_56_3122" cx="0" cy="0" r="1" gradientUnits="userSpaceOnUse" gradientTransform="translate(88 100) rotate(-90) scale(153 133.875)">
<stop stop-color="white"/>
<stop offset="1" stop-color="white" stop-opacity="0"/>
</radialGradient>
<radialGradient id="paint78_radial_56_3122" cx="0" cy="0" r="1" gradientUnits="userSpaceOnUse" gradientTransform="translate(88 100) rotate(-90) scale(153 133.875)">
<stop stop-color="white"/>
<stop offset="1" stop-color="white" stop-opacity="0"/>
</radialGradient>
<radialGradient id="paint79_radial_56_3122" cx="0" cy="0" r="1" gradientUnits="userSpaceOnUse" gradientTransform="translate(88 100) rotate(-90) scale(153 133.875)">
<stop stop-color="white"/>
<stop offset="1" stop-color="white" stop-opacity="0"/>
</radialGradient>
<radialGradient id="paint80_radial_56_3122" cx="0" cy="0" r="1" gradientUnits="userSpaceOnUse" gradientTransform="translate(88 100) rotate(-90) scale(153 133.875)">
<stop stop-color="white"/>
<stop offset="1" stop-color="white" stop-opacity="0"/>
</radialGradient>
<radialGradient id="paint81_radial_56_3122" cx="0" cy="0" r="1" gradientUnits="userSpaceOnUse" gradientTransform="translate(88 100) rotate(-90) scale(153 133.875)">
<stop stop-color="white"/>
<stop offset="1" stop-color="white" stop-opacity="0"/>
</radialGradient>
<radialGradient id="paint82_radial_56_3122" cx="0" cy="0" r="1" gradientUnits="userSpaceOnUse" gradientTransform="translate(88 100) rotate(-90) scale(153 133.875)">
<stop stop-color="white"/>
<stop offset="1" stop-color="white" stop-opacity="0"/>
</radialGradient>
<radialGradient id="paint83_radial_56_3122" cx="0" cy="0" r="1" gradientUnits="userSpaceOnUse" gradientTransform="translate(88 100) rotate(-90) scale(153 133.875)">
<stop stop-color="white"/>
<stop offset="1" stop-color="white" stop-opacity="0"/>
</radialGradient>
</defs>
</svg>
